<?xml version="1.0" encoding="UTF-8"?>
<svg version="1.1" viewBox="0 0 2048 706" width="562" height="194" xmlns="http://www.w3.org/2000/svg">
<path transform="translate(1661,221)" d="m0 0h26l1 1v240l-13 4-22 4-15 2-14 1h-39l-18-4-12-5-10-6-10-8-9-12-7-15-4-13-2-13v-20l2-13 4-14 8-16 8-10 5-5 9-8 15-8 15-5 12-2h31l17 4 16 7 5 2v-42zm-61 98-14 3-12 5-11 7-9 9-8 14-4 13-1 6v18l5 19 6 11 12 12 15 8 14 4 8 1h23l17-2 16-3 3-1 1-4v-99l-10-8-14-7-16-5-5-1z" fill="#FEFEFE"/>
<path transform="translate(703,296)" d="m0 0h36l17 3 15 6 11 8 6 9 5 12 2 13 1 89 4 8 6 4 10 2 1 1v19l-7 3h-21l-7-4-5-8-3-8v-5l-7 4-7 6-21 10-17 4-8 1h-31l-15-4-10-5-7-6-8-13-3-12v-21l3-12 7-14 6-5 19-5 22-4 24-3 47-3-2-20-4-11-6-7-8-4-12-3-7-1h-15l-22 3-19 5-12 4-4-1-6-19 1-3 16-6 21-5zm63 91-39 2-30 4-18 4-6 5-3 5-2 9v8l2 9 4 6 7 6 7 3 5 1h23l17-4 12-5 11-6 11-9 1-1v-36z" fill="#FEFEFE"/>
<path transform="translate(1797,296)" d="m0 0h31l15 3 11 4 12 7 12 12 8 15 3 10 1 7v22l-1 14-1 1-39 1h-74l-28 1 3 15 8 16 6 7 10 7 16 7 14 3h28l21-4 17-6 5-1 3 6 5 15v3l-16 6-24 5-9 1h-39l-20-4-12-5-13-8-10-9-7-8-8-16-5-16-2-15v-15l4-20 5-14 9-14 10-11 14-10 15-7 15-4zm3 23-16 4-14 7-12 11-6 9-5 13v5l35 1h80l3-1-2-14-4-12-6-9-8-6-12-5-13-3z" fill="#FEFEFE"/>
<path transform="translate(223,244)" d="m0 0h20l15 1 18 4 20 8 7 4-1 7-8 16-3 1-19-9-16-5-15-2h-14l-16 3-9 5-7 7-4 8-1 4v11l4 10 5 6 10 6 14 5 36 8 18 5 15 8 12 11 8 13 4 13 1 8v18l-3 12-7 14-11 12-10 7-14 6-16 4-20 2h-14l-26-3-19-5-21-9-2-4 7-18 2-5 6 1 10 5 19 7 18 4h30l19-5 11-7 7-8 4-8 1-4v-14l-3-10-7-11-10-6-12-5-48-11-16-6-10-6-10-9-5-8-5-14v-25l4-12 6-11 10-10 14-8 11-4z" fill="#FEFEFE"/>
<path transform="translate(1382,296)" d="m0 0h31l15 3 14 5 11 6 12 9 9 9 9 14 5 11 4 16v29l-2 12-5 13-8 14-11 12-11 9-15 8-16 5-11 2h-31l-20-4-12-5-13-8-11-9-10-12-8-16-4-14-2-13v-16l4-20 6-15 8-12 9-10 12-9 16-8 13-4zm10 22-13 2-12 4-9 5-11 9-8 11-6 13-3 11-1 7v9l5 21 7 13 11 12 10 7 11 5 8 2 11 1h12l14-2 15-6 12-9 9-10 5-9 5-16 1-16-2-15-6-16-8-11-11-10-14-7-14-4-9-1z" fill="#FEFEFE"/>
<path transform="translate(419,296)" d="m0 0h29l16 3 16 6 14 8 12 10 10 13 7 14 4 13 1 14v19l-2 13-4 12-7 13-8 10-9 9-14 9-14 6-15 4-7 1h-31l-22-5-21-11-13-11-9-12-6-10-5-15-3-16v-17l4-20 6-15 9-13 12-12 10-7 12-6 15-5zm10 22-14 2-14 5-11 7-8 7-7 10-5 11-4 16-1 10 3 17 5 13 7 11 8 8 10 7 12 5 7 2 11 1h12l14-2 13-5 13-9 7-7 8-12 5-17v-25l-2-10-5-12-8-11-10-9-15-8-14-4z" fill="#FEFEFE"/>
<path transform="translate(1187,296)" d="m0 0h28l14 3 9 4 10 6 7 6 7 10 6 13 3 13 1 8 1 28v82l-1 1h-26l-1-1-1-108-3-14-6-12-4-5-10-6-9-3-5-1h-15l-15 3-13 5-10 7-7 6-10 13-1 2-1 113-2 1h-25v-171l1-1h20l2 1 1 3 1 20 1 2 12-12 11-7 11-5 11-3z" fill="#FEFEFE"/>
<path transform="translate(920,296)" d="m0 0h23l13 3 13 7 10 9 2 5-7 8-9 8-4-1-11-8-11-5-5-1h-14l-13 3-12 6-11 9-11 12-3 5-1 113-1 1h-26l-1-1 1-170 5-1h17l2 2 1 23h3l6-7 12-9 14-7 11-3z" fill="#FEFEFE"/>
<path transform="translate(559,221)" d="m0 0h27l1 205 2 10 5 6 10 4 7 2 1 2v19l-1 3-8 1-15-2-10-4-9-8-6-12-3-9-1-6z" fill="#FEFEFE"/>
</svg>
